PathFileType	4	(X/Y/Z)	 2.2Hzlow3min.trc
DataRate	CameraRate	NumFrames	NumMarkers	Units	OrigDataRate	OrigDataStartFrame	OrigNumFrames
200	200	8	43	m	200	1	1000
Frame#	Time	C7			LSH			RSH			MAN			RASI			LASI			HIPR			HIPL			RPSI			LPSI			COX			RTHI1			RTHI2			RTHI3			RTHI4			RLKN			RMKN			RSHA1			RSHA2			RSHA3			RSHA4			RLMAL			RMMAL			RHEEL			RMET5			RMET1			RTOE			LTHI1			LTHI2			LTHI3			LTHI4			LLKN			LMKN			LSHA1			LSHA2			LSHA3			LSHA4			LLMAL			LMMAL			LHEEL			LMET5			LMET1			LTOE			
		X1	Y1	Z1	X2	Y2	Z2	X3	Y3	Z3	X4	Y4	Z4	X5	Y5	Z5	X6	Y6	Z6	X7	Y7	Z7	X8	Y8	Z8	X9	Y9	Z9	X10	Y10	Z10	X11	Y11	Z11	X12	Y12	Z12	X13	Y13	Z13	X14	Y14	Z14	X15	Y15	Z15	X16	Y16	Z16	X17	Y17	Z17	X18	Y18	Z18	X19	Y19	Z19	X20	Y20	Z20	X21	Y21	Z21	X22	Y22	Z22	X23	Y23	Z23	X24	Y24	Z24	X25	Y25	Z25	X26	Y26	Z26	X27	Y27	Z27	X28	Y28	Z28	X29	Y29	Z29	X30	Y30	Z30	X31	Y31	Z31	X32	Y32	Z32	X33	Y33	Z33	X34	Y34	Z34	X35	Y35	Z35	X36	Y36	Z36	X37	Y37	Z37	X38	Y38	Z38	X39	Y39	Z39	X40	Y40	Z40	X41	Y41	Z41	X42	Y42	Z42	X43	Y43	Z43	
1	0.0050	-0.316822	1.509372	-0.530119	-0.284686	1.528468	-0.712282	-0.243105	1.495543	-0.364349	-0.190058	1.447490	-0.541464	-0.199846	1.025994	-0.445758	-0.196373	1.027068	-0.657095	-0.265027	1.069509	-0.412113	-0.256635	1.071980	-0.691576	-0.347861	1.066795	-0.493498	-0.349026	1.061700	-0.600416	-0.352772	1.061935	-0.548620	-0.265008	0.813619	-0.363293	-0.242781	0.758121	-0.358055	-0.184571	0.775293	-0.380569	-0.199425	0.834595	-0.388922	-0.236299	0.510648	-0.372444	-0.227354	0.496328	-0.474260	-0.349270	0.354108	-0.378797	-0.362437	0.316487	-0.388007	-0.309160	0.296110	-0.381935	-0.291429	0.334775	-0.376829	-0.384105	0.168733	-0.403365	-0.347114	0.177693	-0.473323	-0.423388	0.161711	-0.462589	-0.314846	0.061226	-0.371425	-0.258961	0.058423	-0.428283	-0.244186	0.054019	-0.413887	-0.298695	0.818128	-0.736321	-0.282419	0.759391	-0.745927	-0.218141	0.771112	-0.745670	-0.227286	0.829730	-0.737106	-0.244873	0.524185	-0.745452	-0.247856	0.508782	-0.635458	-0.353543	0.334083	-0.757738	-0.359562	0.289345	-0.754965	-0.306101	0.280627	-0.756355	-0.293254	0.319214	-0.758006	-0.357563	0.166387	-0.756339	-0.353352	0.171746	-0.678949	-0.416041	0.160803	-0.713134	-0.279062	0.060553	-0.756640	-0.253812	0.059945	-0.684848	-0.229584	0.047755	-0.693596	
2	0.0100	-0.316565	1.505279	-0.530114	-0.284384	1.524083	-0.712447	-0.242663	1.491219	-0.364162	-0.189898	1.442973	-0.541544	-0.200342	1.021753	-0.445673	-0.196885	1.022797	-0.657066	-0.265515	1.065220	-0.412026	-0.257196	1.067718	-0.691522	-0.348380	1.062360	-0.493349	-0.349595	1.057307	-0.600301	-0.353337	1.057518	-0.548617	-0.264859	0.809354	-0.363036	-0.242328	0.753983	-0.357662	-0.184141	0.771454	-0.380124	-0.199394	0.830671	-0.388585	-0.234566	0.506462	-0.372084	-0.225942	0.492330	-0.473897	-0.348749	0.350810	-0.378381	-0.362293	0.313400	-0.387566	-0.309249	0.292455	-0.382025	-0.291159	0.330955	-0.376810	-0.385404	0.165924	-0.403407	-0.348872	0.174893	-0.473634	-0.425212	0.159389	-0.462326	-0.316740	0.058137	-0.372210	-0.261235	0.055159	-0.429534	-0.246495	0.050677	-0.415321	-0.298599	0.813627	-0.735994	-0.282026	0.754988	-0.745743	-0.217827	0.767085	-0.745738	-0.227168	0.825670	-0.737082	-0.243075	0.520085	-0.745495	-0.246288	0.504729	-0.635509	-0.353418	0.330935	-0.757986	-0.359789	0.286243	-0.755094	-0.306486	0.276985	-0.756127	-0.293220	0.315472	-0.757824	-0.359212	0.163411	-0.756166	-0.355016	0.168844	-0.678740	-0.417769	0.158269	-0.713008	-0.281403	0.057227	-0.756422	-0.256065	0.056585	-0.684622	-0.231911	0.044093	-0.693330	
3	0.0150	-0.316296	1.500876	-0.530130	-0.284073	1.519477	-0.712580	-0.242258	1.486644	-0.364140	-0.189761	1.438184	-0.541656	-0.200844	1.017268	-0.445541	-0.197394	1.018274	-0.657032	-0.266026	1.060657	-0.411909	-0.257806	1.063203	-0.691470	-0.348898	1.057665	-0.493211	-0.350164	1.052636	-0.600178	-0.353951	1.052804	-0.548626	-0.264751	0.804809	-0.362745	-0.241899	0.749587	-0.357270	-0.183770	0.767337	-0.379665	-0.199392	0.826497	-0.388163	-0.232852	0.502028	-0.371743	-0.224647	0.488066	-0.473528	-0.348236	0.347202	-0.378041	-0.362133	0.310006	-0.387121	-0.309356	0.288564	-0.382067	-0.290884	0.326883	-0.376778	-0.386694	0.162886	-0.403374	-0.350650	0.171905	-0.473911	-0.427105	0.156810	-0.461929	-0.318563	0.054581	-0.373210	-0.263411	0.051523	-0.431097	-0.248547	0.047156	-0.416830	-0.298508	0.808866	-0.735669	-0.281625	0.750347	-0.745604	-0.217513	0.762829	-0.745851	-0.227100	0.821356	-0.737104	-0.241265	0.515740	-0.745604	-0.244639	0.500442	-0.635642	-0.353329	0.327605	-0.758194	-0.360095	0.282948	-0.755257	-0.306952	0.273110	-0.755959	-0.293264	0.311512	-0.757709	-0.361038	0.160301	-0.756017	-0.356793	0.165772	-0.678515	-0.419697	0.155447	-0.712812	-0.283806	0.053684	-0.756285	-0.258407	0.053558	-0.684111	-0.234136	0.042040	-0.692553	
4	0.0200	-0.316037	1.496395	-0.530149	-0.283754	1.514812	-0.712711	-0.241857	1.482023	-0.364130	-0.189623	1.433317	-0.541770	-0.201346	1.012714	-0.445409	-0.197899	1.013682	-0.656996	-0.266542	1.056019	-0.411786	-0.258420	1.058604	-0.691421	-0.349423	1.052900	-0.493070	-0.350735	1.047896	-0.600053	-0.354561	1.048023	-0.548616	-0.264651	0.800191	-0.362456	-0.241476	0.745121	-0.356880	-0.183404	0.763155	-0.379190	-0.199397	0.822252	-0.387736	-0.231132	0.497522	-0.371381	-0.223389	0.483736	-0.473149	-0.347758	0.343523	-0.377619	-0.362024	0.306538	-0.386641	-0.309505	0.284601	-0.382120	-0.290653	0.322734	-0.376732	-0.388062	0.159809	-0.403372	-0.352548	0.168904	-0.474235	-0.429097	0.154073	-0.461545	-0.320270	0.051050	-0.374080	-0.264923	0.048336	-0.432716	-0.249744	0.044045	-0.418545	-0.298414	0.804038	-0.735375	-0.281223	0.745639	-0.745490	-0.217195	0.758497	-0.745979	-0.227036	0.816969	-0.737141	-0.239437	0.511325	-0.745740	-0.242964	0.496084	-0.635810	-0.353313	0.324229	-0.758368	-0.360493	0.279632	-0.755375	-0.307508	0.269199	-0.755803	-0.293391	0.307494	-0.757622	-0.362988	0.157163	-0.755844	-0.358697	0.162707	-0.678261	-0.421731	0.152491	-0.712653	-0.286006	0.050385	-0.756336	-0.260285	0.051080	-0.683475	-0.235774	0.040266	-0.691625	
5	0.0250	-0.315787	1.491671	-0.530183	-0.283426	1.509968	-0.712823	-0.241476	1.477218	-0.364211	-0.189493	1.428220	-0.541899	-0.201852	1.007959	-0.445254	-0.198398	1.008880	-0.656958	-0.267080	1.051153	-0.411642	-0.259055	1.053777	-0.691376	-0.349956	1.047926	-0.492929	-0.351309	1.042939	-0.599923	-0.355182	1.043016	-0.548588	-0.264578	0.795354	-0.362159	-0.241073	0.740444	-0.356499	-0.183067	0.758767	-0.378690	-0.199420	0.817801	-0.387264	-0.229424	0.492792	-0.371001	-0.222219	0.479196	-0.472754	-0.347342	0.339614	-0.377144	-0.362020	0.302818	-0.386200	-0.309735	0.280436	-0.382179	-0.290486	0.318362	-0.376684	-0.389545	0.156593	-0.403385	-0.354628	0.165798	-0.474607	-0.431238	0.151042	-0.461103	-0.321679	0.047787	-0.374597	-0.265770	0.045775	-0.434032	-0.250090	0.041569	-0.420404	-0.298324	0.799000	-0.735126	-0.280817	0.740730	-0.745427	-0.216876	0.753963	-0.746139	-0.226997	0.812368	-0.737218	-0.237573	0.506710	-0.745943	-0.241185	0.491518	-0.636068	-0.353417	0.320720	-0.758470	-0.361050	0.276211	-0.755441	-0.308224	0.265145	-0.755681	-0.293667	0.303324	-0.757586	-0.365127	0.153944	-0.755653	-0.360814	0.159569	-0.677967	-0.423965	0.149278	-0.712516	-0.287803	0.047753	-0.756728	-0.261498	0.049301	-0.683046	-0.236692	0.039125	-0.690550	
6	0.0300	-0.315575	1.486759	-0.530236	-0.283088	1.504972	-0.712937	-0.241090	1.472247	-0.364339	-0.189361	1.422909	-0.542031	-0.202366	1.003019	-0.445093	-0.198886	1.003889	-0.656918	-0.267652	1.046069	-0.411485	-0.259719	1.048704	-0.691337	-0.350506	1.042774	-0.492800	-0.351892	1.037786	-0.599780	-0.355782	1.037815	-0.548483	-0.264527	0.790321	-0.361871	-0.240693	0.735575	-0.356138	-0.182755	0.754204	-0.378171	-0.199452	0.813163	-0.386790	-0.227730	0.487843	-0.370571	-0.221119	0.474468	-0.472302	-0.347025	0.335509	-0.376511	-0.362152	0.298898	-0.385734	-0.310075	0.276077	-0.382254	-0.290425	0.313785	-0.376621	-0.391200	0.153316	-0.403430	-0.356958	0.162625	-0.475088	-0.433609	0.147738	-0.460681	-0.322690	0.045138	-0.374478	-0.266079	0.043849	-0.434977	-0.249670	0.039584	-0.422249	-0.298231	0.793767	-0.734964	-0.280410	0.735627	-0.745420	-0.216552	0.749218	-0.746315	-0.226963	0.807560	-0.737324	-0.235663	0.501896	-0.746218	-0.239295	0.486750	-0.636424	-0.353673	0.317108	-0.758490	-0.361813	0.272727	-0.755396	-0.309137	0.261013	-0.755580	-0.294131	0.299038	-0.757609	-0.367457	0.150695	-0.755419	-0.363208	0.156421	-0.677596	-0.426433	0.145839	-0.712471	-0.288970	0.045734	-0.757327	-0.262330	0.048133	-0.682826	-0.237166	0.038730	-0.689633	
7	0.0350	-0.315398	1.481630	-0.530304	-0.282731	1.499807	-0.713046	-0.240724	1.467108	-0.364523	-0.189227	1.417360	-0.542166	-0.202892	0.997880	-0.444923	-0.199369	0.998690	-0.656879	-0.268239	1.040764	-0.411300	-0.260383	1.043386	-0.691308	-0.351073	1.037417	-0.492663	-0.352485	1.032421	-0.599637	-0.356380	1.032409	-0.548348	-0.264489	0.785082	-0.361597	-0.240336	0.730495	-0.355789	-0.182447	0.749444	-0.377621	-0.199486	0.808316	-0.386301	-0.226052	0.482643	-0.370076	-0.220057	0.469532	-0.471784	-0.346833	0.331194	-0.375757	-0.362458	0.294763	-0.385280	-0.310567	0.271519	-0.382380	-0.290503	0.308982	-0.376575	-0.393049	0.150049	-0.403531	-0.359616	0.159431	-0.475687	-0.436220	0.144195	-0.460244	-0.323197	0.043136	-0.374036	-0.265979	0.042665	-0.435529	-0.248893	0.038275	-0.423557	-0.298128	0.788323	-0.734895	-0.279998	0.730303	-0.745459	-0.216219	0.744246	-0.746515	-0.226936	0.802530	-0.737469	-0.233689	0.496877	-0.746580	-0.237274	0.481752	-0.636880	-0.354102	0.313404	-0.758412	-0.362780	0.269194	-0.755245	-0.310262	0.256796	-0.755494	-0.294793	0.294640	-0.757670	-0.369926	0.147450	-0.755126	-0.365900	0.153268	-0.677149	-0.429071	0.142200	-0.712542	-0.289696	0.044316	-0.757948	-0.262907	0.047586	-0.682593	-0.237279	0.038581	-0.688833	
8	0.0400	-0.315255	1.476307	-0.530389	-0.282365	1.494491	-0.713158	-0.240364	1.461791	-0.364758	-0.189084	1.411592	-0.542295	-0.203432	0.992557	-0.444750	-0.199842	0.993287	-0.656847	-0.268844	1.035256	-0.411088	-0.261063	1.037825	-0.691293	-0.351661	1.031871	-0.492520	-0.353099	1.026853	-0.599494	-0.356977	1.026816	-0.548186	-0.264451	0.779665	-0.361337	-0.239994	0.725221	-0.355451	-0.182136	0.744493	-0.377046	-0.199503	0.803272	-0.385804	-0.224399	0.477207	-0.369509	-0.218979	0.464401	-0.471180	-0.346759	0.326721	-0.374911	-0.362944	0.290477	-0.384848	-0.311220	0.266807	-0.382572	-0.290712	0.303978	-0.376570	-0.395083	0.146864	-0.403696	-0.362583	0.156267	-0.476384	-0.439012	0.140540	-0.459769	-0.323516	0.041723	-0.373352	-0.265771	0.042276	-0.435624	-0.247899	0.037665	-0.424566	-0.298012	0.782673	-0.734912	-0.279569	0.724772	-0.745558	-0.215876	0.739070	-0.746742	-0.226907	0.797289	-0.737655	-0.231649	0.491673	-0.747024	-0.235107	0.476542	-0.637436	-0.354671	0.309654	-0.758244	-0.363905	0.265636	-0.755003	-0.311556	0.252538	-0.755414	-0.295616	0.290175	-0.757753	-0.372416	0.144235	-0.754770	-0.368815	0.150129	-0.676642	-0.431796	0.138475	-0.712684	-0.290173	0.043536	-0.758596	-0.263124	0.047375	-0.682555	-0.237143	0.038404	-0.688273	
